{
  "accessors": [
    {
      "bufferView": 3,
      "componentType": 5126,
      "count": 1891,
      "max": [
        0.023423435166478157,
        0.061034660786390305,
        0.018803667277097702
      ],
      "min": [
        -0.020176373422145844,
        0.00012646205141209066,
        -0.02037145383656025
      ],
      "type": "VEC3"
    },
    {
      "bufferView": 3,
      "byteOffset": 22692,
      "componentType": 5126,
      "count": 1891,
      "max": [
        0.9994437098503113,
        0.9997951984405518,
        0.998756468296051
      ],
      "min": [
        -0.9997031092643738,
        -1.0,
        -0.9982321858406067
      ],
      "type": "VEC3"
    },
    {
      "bufferView": 4,
      "componentType": 5126,
      "count": 1891,
      "max": [
        0.9996736645698547,
        0.9998813271522522,
        0.9995090961456299,
        1.0
      ],
      "min": [
        -0.9995584487915039,
        -0.9684998393058777,
        -0.9997939467430115,
        -1.0
      ],
      "type": "VEC4"
    },
    {
      "bufferView": 2,
      "componentType": 5126,
      "count": 1891,
      "max": [
        0.99169921875,
        0.99365234375
      ],
      "min": [
        0.0015850067138671875,
        0.006378173828125
      ],
      "type": "VEC2"
    },
    {
      "bufferView": 1,
      "componentType": 5125,
      "count": 5679,
      "type": "SCALAR"
    },
    {
      "bufferView": 5,
      "componentType": 5126,
      "count": 43,
      "max": [
        466.4081115722656,
        3.877782106399536,
        3.9428000450134277,
        0.0,
        4.664080619812012,
        466.4080505371094,
        7.746319170109928e-06,
        0.0,
        3.2843635082244873,
        4.194080352783203,
        466.4081115722656,
        0.0,
        0.20415334403514862,
        0.1628747135400772,
        0.087125763297081,
        1.0
      ],
      "min": [
        -2.7458457946777344,
        -3.063772201538086,
        -4.202062606811523,
        0.0,
        -4.65897274017334,
        -4.664079666137695,
        -8.048088602663483e-06,
        0.0,
        -3.151744842529297,
        -3.505796432495117,
        -3.885162353515625,
        0.0,
        -0.22879450023174286,
        -0.25009724497795105,
        -0.08605481684207916,
        1.0
      ],
      "type": "MAT4"
    },
    {
      "bufferView": 0,
      "componentType": 5123,
      "count": 1891,
      "type": "VEC4"
    },
    {
      "bufferView": 4,
      "byteOffset": 30256,
      "componentType": 5126,
      "count": 1891,
      "max": [
        1.0,
        0.5,
        0.26054996252059937,
        0.0
      ],
      "min": [
        0.3927970230579376,
        0.0,
        0.0,
        0.0
      ],
      "type": "VEC4"
    }
  ],
  "asset": {
    "extras": {
      "author": "Arturo.Wimbleton (https://sketchfab.com/Arturo.Wimbleton)",
      "license": "CC-BY-4.0 (http://creativecommons.org/licenses/by/4.0/)",
      "source": "https://sketchfab.com/3d-models/zombie-match-browncoat-zombie-625687dc182242e794cf34ee1914b9de",
      "title": "Zombie Match: Browncoat Zombie"
    },
    "generator": "Sketchfab-12.66.0",
    "version": "2.0"
  },
  "bufferViews": [
    {
      "buffer": 0,
      "byteLength": 15128,
      "byteStride": 8,
      "name": "shortBufferViews",
      "target": 34962
    },
    {
      "buffer": 0,
      "byteLength": 22716,
      "byteOffset": 15128,
      "name": "floatBufferViews",
      "target": 34963
    },
    {
      "buffer": 0,
      "byteLength": 15128,
      "byteOffset": 37844,
      "byteStride": 8,
      "name": "floatBufferViews",
      "target": 34962
    },
    {
      "buffer": 0,
      "byteLength": 45384,
      "byteOffset": 52972,
      "byteStride": 12,
      "name": "floatBufferViews",
      "target": 34962
    },
    {
      "buffer": 0,
      "byteLength": 60512,
      "byteOffset": 98356,
      "byteStride": 16,
      "name": "floatBufferViews",
      "target": 34962
    },
    {
      "buffer": 0,
      "byteLength": 2752,
      "byteOffset": 158868,
      "name": "floatBufferViews"
    }
  ],
  "buffers": [
    {
      "byteLength": 161620,
      "uri": "scene.bin"
    }
  ],
  "images": [
    {
      "uri": "textures/Zombie_baseColor.png"
    },
    {
      "uri": "textures/Zombie_metallicRoughness.png"
    },
    {
      "uri": "textures/Zombie_normal.png"
    }
  ],
  "materials": [
    {
      "doubleSided": true,
      "name": "Zombie",
      "normalTexture": {
        "index": 2
      },
      "occlusionTexture": {
        "index": 1
      },
      "pbrMetallicRoughness": {
        "baseColorTexture": {
          "index": 0
        },
        "metallicRoughnessTexture": {
          "index": 1
        }
      }
    }
  ],
  "meshes": [
    {
      "name": "zombie_browncoat_mesh_Zombie_0",
      "primitives": [
        {
          "attributes": {
            "JOINTS_0": 6,
            "NORMAL": 1,
            "POSITION": 0,
            "TANGENT": 2,
            "TEXCOORD_0": 3,
            "TEXCOORD_1": 3,
            "TEXCOORD_2": 3,
            "WEIGHTS_0": 7
          },
          "indices": 4,
          "material": 0,
          "mode": 4
        }
      ]
    }
  ],
  "nodes": [
    {
      "children": [
        1
      ],
      "matrix": [
        1.0,
        0.0,
        0.0,
        0.0,
        0.0,
        2.220446049250313e-16,
        -1.0,
        0.0,
        0.0,
        1.0,
        2.220446049250313e-16,
        0.0,
        0.0,
        0.0,
        0.0,
        1.0
      ],
      "name": "Sketchfab_model"
    },
    {
      "children": [
        2
      ],
      "matrix": [
        0.009999999776482582,
        0.0,
        0.0,
        0.0,
        0.0,
        0.0,
        0.009999999776482582,
        0.0,
        0.0,
        -0.009999999776482582,
        0.0,
        0.0,
        0.0,
        0.0,
        0.0,
        1.0
      ],
      "name": "browncoat zombie.fbx"
    },
    {
      "children": [
        3
      ],
      "name": "RootNode"
    },
    {
      "children": [
        4
      ],
      "matrix": [
        100.0,
        0.0,
        0.0,
        0.0,
        0.0,
        99.99999999999866,
        1.6292067073209114e-05,
        0.0,
        0.0,
        -1.6292067073209114e-05,
        99.99999999999866,
        0.0,
        0.0,
        0.0,
        0.0,
        1.0
      ],
      "name": "ObjectiveIndicatorZombieCharge"
    },
    {
      "children": [
        5,
        49,
        48
      ],
      "name": "Object_4"
    },
    {
      "children": [
        6
      ],
      "name": "_rootJoint"
    },
    {
      "children": [
        7
      ],
      "name": "Zombie_01",
      "rotation": [
        3.0781305190069567e-24,
        -0.3507211208343506,
        8.219087340095262e-24,
        0.936479926109314
      ],
      "translation": [
        0.0,
        -0.14103515446186066,
        1.1117869291865645e-07
      ]
    },
    {
      "children": [
        8
      ],
      "name": "ultra_root_02",
      "rotation": [
        0.0,
        -4.470348358154297e-08,
        0.0,
        1.0
      ],
      "translation": [
        0.0005452255718410015,
        0.1522592157125473,
        -0.0010367890354245901
      ]
    },
    {
      "children": [
        9,
        37
      ],
      "name": "root_03",
      "rotation": [
        0.5000001192092896,
        0.5,
        0.49999988079071045,
        0.4999999701976776
      ],
      "scale": [
        1.0,
        0.9999998807907104,
        1.0
      ],
      "translation": [
        -5.238689482212067e-10,
        0.14266490936279297,
        -0.0012692792806774378
      ]
    },
    {
      "children": [
        10,
        19,
        25,
        34
      ],
      "name": "back_04",
      "rotation": [
        0.996705174446106,
        0.08110997080802917,
        -2.626069317557267e-08,
        -7.36104297516249e-08
      ],
      "scale": [
        0.9999968409538269,
        1.0,
        1.0
      ],
      "translation": [
        0.020933866500854492,
        -6.880145519971848e-08,
        -5.864109198228107e-11
      ]
    },
    {
      "children": [
        11
      ],
      "name": "l_shoulder_05",
      "rotation": [
        0.2347806990146637,
        0.7668866515159607,
        -0.5353453159332275,
        0.26489296555519104
      ],
      "scale": [
        0.9999999403953552,
        0.9999999403953552,
        1.0000001192092896
      ],
      "translation": [
        0.03289664909243584,
        0.001395474188029766,
        -0.026486549526453018
      ]
    },
    {
      "children": [
        12
      ],
      "name": "l_elbow_06",
      "rotation": [
        0.12909911572933197,
        -0.122795969247818,
        0.0037457209546118975,
        0.9839921593666077
      ],
      "translation": [
        0.040325552225112915,
        -1.0896474123001099e-07,
        -1.9280264496046584e-08
      ]
    },
    {
      "children": [
        13,
        16
      ],
      "name": "l_hand_07",
      "rotation": [
        0.012329707853496075,
        -0.01245859730988741,
        0.026396332308650017,
        0.9994978904724121
      ],
      "scale": [
        1.0,
        0.9999999403953552,
        0.9999999403953552
      ],
      "translation": [
        0.043609462678432465,
        -2.60770320892334e-07,
        1.59374309305349e-08
      ]
    },
    {
      "children": [
        14
      ],
      "name": "l_finger_08",
      "rotation": [
        -0.03631244972348213,
        0.036325402557849884,
        -0.031370703130960464,
        0.998187243938446
      ],
      "translation": [
        0.026703760027885437,
        -1.7136335372924805e-07,
        -4.8515580886032694e-08
      ]
    },
    {
      "children": [
        15
      ],
      "name": "l_finger_end_09",
      "rotation": [
        1.7814160147011648e-09,
        -1.7932077867044427e-07,
        -2.868473814032768e-07,
        1.0
      ],
      "scale": [
        0.9999999403953552,
        0.9999999403953552,
        0.9999999403953552
      ],
      "translation": [
        0.010036462917923927,
        1.3783574104309082e-07,
        7.045741767797153e-11
      ]
    },
    {
      "name": "l_finger_end_end_033",
      "translation": [
        -6.938893903907228e-18,
        0.010036446154117584,
        0.0
      ]
    },
    {
      "children": [
        17
      ],
      "name": "l_thumb_010",
      "rotation": [
        0.3780772089958191,
        -0.4624318480491638,
        0.05484025552868843,
        0.8001293540000916
      ],
      "scale": [
        0.9999998807907104,
        1.0,
        1.0
      ],
      "translation": [
        0.0147789865732193,
        -0.0031939763575792313,
        0.014264685101807117
      ]
    },
    {
      "children": [
        18
      ],
      "name": "l_thumb_end_011",
      "rotation": [
        -1.2668286331063427e-07,
        -2.2543954969478364e-07,
        -1.303851426825986e-08,
        1.0
      ],
      "scale": [
        1.0,
        1.0000001192092896,
        1.0000001192092896
      ],
      "translation": [
        0.006890777498483658,
        -1.1175870895385742e-08,
        -2.8843309962667263e-09
      ]
    },
    {
      "name": "l_thumb_end_end_034",
      "rotation": [
        2.7755575615628914e-17,
        2.7755575615628914e-17,
        5.551115123125783e-17,
        1.0
      ],
      "translation": [
        1.3877787807814457e-17,
        0.0100000174716115,
        1.3877787807814457e-17
      ]
    },
    {
      "children": [
        20
      ],
      "name": "neck_012",
      "rotation": [
        -1.9867398748374399e-07,
        -3.1573475212098856e-07,
        -0.08635415881872177,
        0.9962645173072815
      ],
      "translation": [
        0.03994390368461609,
        4.761386662721634e-08,
        1.899573298658197e-08
      ]
    },
    {
      "children": [
        21,
        23
      ],
      "name": "head_013",
      "rotation": [
        6.982277511724533e-08,
        8.86467343974573e-09,
        0.12014253437519073,
        0.9927566647529602
      ],
      "scale": [
        1.0,
        0.9999998807907104,
        0.9999999403953552
      ],
      "translation": [
        0.01556552667170763,
        -1.3783574104309082e-07,
        -1.9524918570823502e-08
      ]
    },
    {
      "children": [
        22
      ],
      "name": "head_end_014",
      "rotation": [
        0.47583791613578796,
        0.5230470895767212,
        -0.4758375287055969,
        0.5230475068092346
      ],
      "scale": [
        0.9999999403953552,
        0.9999998807907104,
        0.9999999403953552
      ],
      "translation": [
        0.021251732483506203,
        -9.313225746154785e-09,
        -1.7793219342365774e-08
      ]
    },
    {
      "name": "head_end_end_035",
      "rotation": [
        2.6469779601696886e-23,
        -2.802596928649634e-45,
        -1.0587911840678754e-22,
        1.0
      ],
      "translation": [
        0.0,
        0.016350388526916504,
        0.0
      ]
    },
    {
      "children": [
        24
      ],
      "name": "jaw_015",
      "rotation": [
        0.475837767124176,
        0.5230472087860107,
        -0.4758375585079193,
        0.5230474472045898
      ],
      "scale": [
        0.9999997615814209,
        0.9999995231628418,
        0.9999998211860657
      ],
      "translation": [
        0.00804802868515253,
        -0.008143138140439987,
        -2.778755003873812e-09
      ]
    },
    {
      "name": "jaw_end_036",
      "rotation": [
        8.816207631167156e-39,
        -8.326672684688674e-17,
        1.0587911840678754e-22,
        1.0
      ],
      "translation": [
        1.734723475976807e-18,
        0.01635041832923889,
        3.469446951953614e-18
      ]
    },
    {
      "children": [
        26
      ],
      "name": "r_shoulder_016",
      "rotation": [
        -0.7668865323066711,
        0.2347809076309204,
        0.26489365100860596,
        0.5353450775146484
      ],
      "scale": [
        1.0,
        0.9999999403953552,
        1.0
      ],
      "translation": [
        0.03289640694856644,
        0.001395413652062416,
        0.026486702263355255
      ]
    },
    {
      "children": [
        27
      ],
      "name": "r_elbow_017",
      "rotation": [
        0.12909898161888123,
        -0.12279518693685532,
        0.003744287882000208,
        0.9839922785758972
      ],
      "scale": [
        0.9999998807907104,
        0.9999999403953552,
        1.0
      ],
      "translation": [
        -0.04032541811466217,
        2.8777867555618286e-07,
        1.1766650231948006e-07
      ]
    },
    {
      "children": [
        28,
        31
      ],
      "name": "r_hand_00",
      "rotation": [
        0.01232967246323824,
        -0.012458409182727337,
        0.02639762870967388,
        0.9994979500770569
      ],
      "translation": [
        -0.04360957443714142,
        4.284083843231201e-07,
        7.605707708080445e-08
      ]
    },
    {
      "children": [
        29
      ],
      "name": "r_finger_018",
      "rotation": [
        -0.03631214797496796,
        0.036324914544820786,
        -0.03137025609612465,
        0.9981873035430908
      ],
      "scale": [
        1.0,
        0.9999999403953552,
        1.0000001192092896
      ],
      "translation": [
        -0.026703236624598503,
        -3.1478703022003174e-07,
        -5.363544985925728e-08
      ]
    },
    {
      "children": [
        30
      ],
      "name": "r_finger_end_019",
      "rotation": [
        -6.535537266927349e-08,
        5.396260860379698e-08,
        1.7881393432617188e-07,
        1.0
      ],
      "translation": [
        -0.010036969557404518,
        5.252659320831299e-07,
        8.642483351195551e-08
      ]
    },
    {
      "name": "r_finger_end_end_037",
      "rotation": [
        7.703719777548943e-34,
        2.7755575615628914e-17,
        -2.7755575615628914e-17,
        1.0
      ],
      "translation": [
        -6.938893903907228e-18,
        0.010036949999630451,
        -1.3877787807814457e-17
      ]
    },
    {
      "children": [
        32
      ],
      "name": "r_thumb_020",
      "rotation": [
        0.37807703018188477,
        -0.4624331295490265,
        0.05483996868133545,
        0.800128698348999
      ],
      "scale": [
        1.0,
        1.0000001192092896,
        1.0
      ],
      "translation": [
        -0.01477900706231594,
        0.003193626180291176,
        -0.014264646917581558
      ]
    },
    {
      "children": [
        33
      ],
      "name": "r_thumb_end_021",
      "rotation": [
        3.042114116169614e-08,
        1.8930202827505127e-07,
        -1.601874828338623e-07,
        1.0
      ],
      "translation": [
        -0.006890634074807167,
        -2.7939677238464355e-08,
        -7.34525329448843e-08
      ]
    },
    {
      "name": "r_thumb_end_end_038",
      "rotation": [
        -5.551115123125783e-17,
        2.7755575615628914e-17,
        -1.3877787807814457e-17,
        1.0
      ],
      "translation": [
        -6.938893903907228e-18,
        0.010000006295740604,
        0.0
      ]
    },
    {
      "children": [
        35
      ],
      "name": "tie_022",
      "rotation": [
        -1.46503865039449e-07,
        1.8254286260344088e-07,
        0.9945374131202698,
        -0.10438081622123718
      ],
      "scale": [
        1.0000056028366089,
        1.0,
        1.0000001192092896
      ],
      "translation": [
        0.03285114839673042,
        -0.013105122372508049,
        7.03363767229348e-09
      ]
    },
    {
      "children": [
        36
      ],
      "name": "tie_end_023",
      "rotation": [
        -0.4881783425807953,
        0.5115485191345215,
        0.4881782531738281,
        0.511548638343811
      ],
      "scale": [
        0.9999998807907104,
        0.9999997615814209,
        1.0
      ],
      "translation": [
        0.024343324825167656,
        3.4458935260772705e-08,
        5.2199499833704976e-08
      ]
    },
    {
      "name": "tie_end_end_039",
      "rotation": [
        2.895132143935597e-23,
        5.551115123125783e-17,
        -1.0587911840678754e-22,
        1.0
      ],
      "translation": [
        0.0,
        0.024343371391296387,
        0.0
      ]
    },
    {
      "children": [
        38,
        43
      ],
      "name": "hip_024",
      "rotation": [
        -0.5000000596046448,
        -0.49999991059303284,
        -0.5,
        0.5
      ],
      "translation": [
        -0.01682448387145996,
        -0.0011428873986005783,
        2.983070856998893e-08
      ]
    },
    {
      "children": [
        39
      ],
      "name": "l_thigh_025",
      "rotation": [
        0.41535085439682007,
        -0.4417796730995178,
        -0.5446825623512268,
        0.5793405771255493
      ],
      "translation": [
        0.015997201204299927,
        -0.01284799724817276,
        0.0020099938847124577
      ]
    },
    {
      "children": [
        40
      ],
      "name": "l_knee_026",
      "rotation": [
        0.9886099696159363,
        -0.06946536898612976,
        -0.001135377329774201,
        -0.1335049718618393
      ],
      "scale": [
        1.000000238418579,
        1.0,
        1.0000009536743164
      ],
      "translation": [
        0.0435296930372715,
        -1.0477378964424133e-07,
        2.7853717554648938e-08
      ]
    },
    {
      "children": [
        41
      ],
      "name": "l_ankle_027",
      "rotation": [
        0.8281906247138977,
        -0.5604465007781982,
        -3.2918578085627814e-07,
        3.002143955654901e-07
      ],
      "scale": [
        1.0,
        0.9999998211860657,
        1.0
      ],
      "translation": [
        0.05197211354970932,
        -9.336508810520172e-08,
        1.0324104238179643e-08
      ]
    },
    {
      "children": [
        42
      ],
      "name": "l_foot_028",
      "rotation": [
        -0.16106648743152618,
        0.6885183453559875,
        0.1610664427280426,
        0.6885184645652771
      ],
      "scale": [
        0.9999998211860657,
        0.9999997615814209,
        0.9999998807907104
      ],
      "translation": [
        0.030071934685111046,
        -2.061133272945881e-07,
        1.56002588624915e-08
      ]
    },
    {
      "name": "l_foot_end_040",
      "rotation": [
        2.6469779601696886e-23,
        -8.326672684688674e-17,
        -2.6469779601696886e-23,
        1.0
      ],
      "translation": [
        0.0,
        0.03007197380065918,
        0.0
      ]
    },
    {
      "children": [
        44
      ],
      "name": "r_thigh_029",
      "rotation": [
        0.5793405175209045,
        0.5446826219558716,
        -0.44177958369255066,
        -0.41535070538520813
      ],
      "scale": [
        1.0,
        1.0,
        0.9999999403953552
      ],
      "translation": [
        -0.015997264534235,
        -0.01284799724817276,
        0.0020100194960832596
      ]
    },
    {
      "children": [
        45
      ],
      "name": "r_knee_030",
      "rotation": [
        0.988610029220581,
        -0.0694652572274208,
        -0.001135237398557365,
        -0.13350485265254974
      ],
      "scale": [
        1.000000238418579,
        1.0,
        1.0000007152557373
      ],
      "translation": [
        -0.0435299351811409,
        7.543712854385376e-08,
        3.700932893480058e-08
      ]
    },
    {
      "children": [
        46
      ],
      "name": "r_ankle_031",
      "rotation": [
        0.8281906247138977,
        -0.5604465007781982,
        -1.8062313245081896e-07,
        -3.106977786160314e-08
      ],
      "scale": [
        0.9999999403953552,
        0.9999998211860657,
        0.9999999403953552
      ],
      "translation": [
        -0.05197212100028992,
        -7.450580596923828e-08,
        4.8419703801982905e-08
      ]
    },
    {
      "children": [
        47
      ],
      "name": "r_foot_032",
      "rotation": [
        -0.1610664576292038,
        0.6885184049606323,
        0.1610664427280426,
        0.6885184645652771
      ],
      "scale": [
        0.9999999403953552,
        1.0,
        1.0
      ],
      "translation": [
        -0.03007190115749836,
        -5.098991096019745e-08,
        3.4913514301848636e-09
      ]
    },
    {
      "name": "r_foot_end_041",
      "rotation": [
        1.8367099231598242e-39,
        1.3877787807814457e-16,
        -1.3234889800848443e-23,
        1.0
      ],
      "translation": [
        0.0,
        0.03007185459136963,
        0.0
      ]
    },
    {
      "matrix": [
        351.6667912736047,
        -4.9915186229211996e-05,
        306.37721784508966,
        0.0,
        -3.367306552047231e-12,
        466.4080619812011,
        7.598752485747374e-05,
        0.0,
        -306.37721784509387,
        -5.7293799686065036e-05,
        351.66679127360027,
        0.0,
        -1.0531102952607632e-06,
        4.750490390925677e-05,
        -1.3012884304387329e-06,
        1.0
      ],
      "name": "Object_48"
    },
    {
      "mesh": 0,
      "name": "Object_49",
      "skin": 0
    }
  ],
  "samplers": [
    {
      "magFilter": 9729,
      "minFilter": 9987,
      "wrapS": 10497,
      "wrapT": 10497
    }
  ],
  "scene": 0,
  "scenes": [
    {
      "name": "Sketchfab_Scene",
      "nodes": [
        0
      ]
    }
  ],
  "skins": [
    {
      "inverseBindMatrices": 5,
      "joints": [
        5,
        6,
        7,
        8,
        9,
        10,
        11,
        12,
        13,
        14,
        15,
        16,
        17,
        18,
        19,
        20,
        21,
        22,
        23,
        24,
        25,
        26,
        27,
        28,
        29,
        30,
        31,
        32,
        33,
        34,
        35,
        36,
        37,
        38,
        39,
        40,
        41,
        42,
        43,
        44,
        45,
        46,
        47
      ],
      "skeleton": 5
    }
  ],
  "textures": [
    {
      "sampler": 0,
      "source": 0
    },
    {
      "sampler": 0,
      "source": 1
    },
    {
      "sampler": 0,
      "source": 2
    }
  ]
}
